<?xml version="1.0" standalone="no"?>
<!DOCTYPE svg PUBLIC "-//W3C//DTD SVG 20010904//EN"
 "http://www.w3.org/TR/2001/REC-SVG-20010904/DTD/svg10.dtd">
<svg version="1.0" xmlns="http://www.w3.org/2000/svg"
 width="1000.000000pt" height="1000.000000pt" viewBox="0 0 1000.000000 1000.000000"
 preserveAspectRatio="xMidYMid meet">
<metadata>
Created by potrace 1.11, written by Peter Selinger 2001-2013
</metadata>
<g transform="translate(0.000000,1000.000000) scale(0.100000,-0.100000)"
fill="#000000" stroke="none">
<path d="M9569 9346 c-2 -2 -33 -7 -69 -10 -88 -9 -214 -25 -250 -31 -8 -2
-42 -6 -75 -9 -119 -14 -141 -16 -215 -26 -78 -10 -120 -15 -205 -25 -27 -3
-61 -8 -75 -10 -31 -5 -127 -17 -160 -20 -14 -1 -47 -5 -75 -9 -27 -4 -68 -9
-90 -11 -22 -2 -53 -6 -70 -9 -16 -2 -59 -8 -95 -11 -36 -4 -72 -9 -80 -10 -8
-1 -42 -6 -75 -9 -84 -10 -103 -12 -160 -20 -76 -11 -99 -14 -245 -31 -75 -8
-145 -17 -155 -19 -11 -2 -49 -7 -85 -11 -36 -3 -76 -8 -90 -10 -41 -6 -102
-14 -160 -20 -30 -3 -66 -8 -80 -10 -14 -2 -50 -7 -80 -10 -30 -4 -66 -8 -80
-10 -14 -2 -50 -7 -80 -10 -30 -3 -66 -8 -80 -10 -14 -2 -50 -7 -80 -10 -30
-3 -66 -8 -80 -10 -26 -4 -94 -12 -170 -21 -25 -3 -58 -7 -75 -9 -16 -2 -68
-9 -115 -15 -47 -6 -101 -12 -120 -15 -55 -7 -120 -14 -175 -20 -27 -3 -81
-10 -120 -15 -38 -5 -108 -14 -155 -20 -47 -6 -101 -13 -120 -15 -19 -3 -75
-9 -125 -15 -49 -5 -99 -12 -110 -14 -11 -2 -51 -7 -90 -11 -38 -4 -77 -8 -85
-10 -8 -1 -40 -6 -70 -10 -30 -3 -66 -8 -80 -10 -14 -2 -52 -6 -85 -10 -33 -3
-74 -8 -91 -11 -17 -3 -46 -6 -65 -8 -69 -8 -145 -17 -169 -21 -14 -2 -50 -7
-80 -10 -30 -3 -86 -10 -125 -15 -38 -5 -92 -12 -120 -15 -27 -3 -66 -8 -85
-10 -36 -5 -503 -62 -575 -70 -22 -3 -51 -7 -65 -10 -14 -2 -54 -7 -90 -11
-36 -3 -72 -7 -80 -9 -8 -1 -42 -6 -75 -9 -33 -4 -71 -9 -85 -11 -14 -2 -47
-6 -75 -10 -27 -3 -84 -10 -125 -15 -41 -6 -95 -12 -120 -15 -44 -5 -147 -18
-245 -30 -27 -4 -61 -8 -75 -10 -22 -3 -74 -9 -170 -20 -14 -2 -117 -15 -230
-29 -113 -14 -225 -28 -250 -31 -25 -3 -61 -7 -80 -10 -50 -7 -107 -14 -165
-20 -27 -3 -66 -8 -85 -10 -19 -3 -57 -7 -85 -10 -27 -3 -61 -8 -75 -10 -14
-2 -50 -7 -80 -10 -30 -3 -66 -7 -80 -10 -23 -5 -48 -8 -167 -20 -43 -4 -64
-7 -153 -20 -14 -2 -47 -7 -75 -10 -27 -3 -66 -7 -85 -10 -19 -2 -57 -7 -85
-10 -27 -3 -84 -10 -125 -15 -96 -12 -168 -21 -200 -25 -14 -1 -53 -6 -87 -10
l-62 -7 5 -42 c6 -55 24 -202 30 -247 3 -20 6 -52 9 -70 2 -19 18 -144 35
-279 l31 -245 -1 -542 -1 -543 23 0 23 0 -1 -2543 c0 -1398 3 -2555 8 -2571
13 -48 50 -93 94 -115 l41 -21 4565 2 4564 3 43 28 c27 18 50 44 62 70 18 41
19 109 19 2595 0 2545 0 2552 20 2552 11 0 20 6 21 13 4 57 3 977 -1 978 -3 0
-1911 2 -4240 2 l-4235 2 -1 58 c-1 36 3 57 10 58 6 0 20 2 31 5 11 2 43 6 70
9 28 3 61 7 75 10 14 2 52 7 85 10 33 3 71 8 85 10 14 2 120 16 235 30 233 28
285 34 333 41 17 2 47 6 65 8 33 5 290 35 342 41 17 2 48 6 70 9 22 3 60 8 85
11 25 3 59 7 75 10 17 3 53 7 80 10 69 7 135 16 165 21 14 2 54 6 90 9 36 4
72 8 80 10 8 2 40 7 70 10 52 5 104 12 160 20 14 2 54 7 90 10 36 4 73 9 84
11 10 2 44 6 75 9 74 8 210 25 241 30 14 3 56 8 95 11 38 3 72 7 75 9 3 2 34
6 70 9 36 4 76 9 90 11 14 2 50 7 80 10 30 4 66 8 80 10 14 2 66 9 115 15 50
6 106 13 125 15 19 3 55 7 80 10 25 3 62 8 83 10 20 3 54 7 75 9 83 10 148 18
162 21 8 2 44 6 80 10 36 3 92 10 125 15 33 5 89 12 125 15 36 4 72 9 81 10 9
2 40 6 70 10 30 3 90 10 134 16 44 5 96 12 115 14 48 6 113 14 158 20 20 3 57
7 82 10 65 7 143 17 160 20 9 2 46 6 82 9 37 4 75 8 85 10 10 2 47 7 83 11 36
4 73 9 82 10 9 2 43 6 75 10 32 3 69 8 83 10 14 2 48 7 75 9 28 3 66 8 85 10
19 3 58 8 85 11 28 3 61 7 75 10 14 2 48 7 75 10 28 3 66 7 85 10 19 3 58 7
85 10 28 3 86 10 130 15 44 6 96 13 115 15 19 2 60 7 90 10 30 4 66 8 80 10
52 8 109 15 235 30 72 8 148 18 170 21 22 2 58 7 80 10 22 3 51 7 65 9 14 2
53 7 87 10 34 3 70 7 80 9 10 2 47 7 83 11 36 5 72 9 80 10 8 1 44 5 80 10 36
4 72 8 80 10 8 2 44 6 80 9 36 4 76 9 90 11 35 6 192 26 650 81 30 4 62 8 70
10 8 1 26 3 38 3 23 1 24 3 17 59 -3 31 -8 66 -10 77 -2 11 -7 51 -10 89 -3
38 -8 72 -9 75 -2 3 -7 37 -11 74 -3 37 -8 76 -10 85 -3 17 -10 75 -21 167 -3
28 -7 61 -9 75 -2 14 -9 66 -15 115 -18 155 -20 165 -39 165 -10 0 -20 -2 -22
-4z"/>
</g>
</svg>
